<mxfile host="app.diagrams.net" agent="Mozilla/5.0 (Windows NT 10.0; Win64; x64; rv:138.0) Gecko/20100101 Firefox/138.0" version="26.2.14" pages="2">
  <diagram name="Page-1" id="xKUDi7ugMRKgNnsEkQCC">
    <mxGraphModel dx="1426" dy="871" grid="1" gridSize="10" guides="1" tooltips="1" connect="1" arrows="1" fold="1" page="1" pageScale="1" pageWidth="3300" pageHeight="4681" math="0" shadow="0">
      <root>
        <mxCell id="0" />
        <mxCell id="1" parent="0" />
        <mxCell id="_zrpmfep48mrBp3t19Jl-30" value="2a Diagnosis Predication" style="text;html=1;align=left;verticalAlign=top;whiteSpace=wrap;rounded=0;dashed=1;fillColor=#f5f5f5;fontColor=#333333;strokeColor=#666666;strokeWidth=2;" name="text" vertex="1" parent="1">
          <mxGeometry x="410" y="500" width="290" height="290" as="geometry" />
        </mxCell>
        <mxCell id="_zrpmfep48mrBp3t19Jl-29" value="1d Preliminary Data Processing" style="text;html=1;align=left;verticalAlign=top;whiteSpace=wrap;rounded=0;dashed=1;fillColor=#f5f5f5;fontColor=#333333;strokeColor=#666666;strokeWidth=2;" name="text" vertex="1" parent="1">
          <mxGeometry x="710" y="500" width="360" height="200" as="geometry" />
        </mxCell>
        <mxCell id="_zrpmfep48mrBp3t19Jl-28" value="&lt;div align=&quot;right&quot;&gt;2a Estimating the Optimal Number of Clusters&lt;/div&gt;" style="text;html=1;align=right;verticalAlign=top;whiteSpace=wrap;rounded=0;dashed=1;fillColor=#f5f5f5;fontColor=#333333;strokeColor=#666666;strokeWidth=2;" name="text" vertex="1" parent="1">
          <mxGeometry x="1080" y="400" width="190" height="300" as="geometry" />
        </mxCell>
        <mxCell id="_zrpmfep48mrBp3t19Jl-27" value="1d Preliminary Data Processing" style="text;html=1;align=left;verticalAlign=top;whiteSpace=wrap;rounded=0;dashed=1;fillColor=#f5f5f5;fontColor=#333333;strokeColor=#666666;strokeWidth=2;" name="text" vertex="1" parent="1">
          <mxGeometry x="710" y="400" width="360" height="90" as="geometry" />
        </mxCell>
        <mxCell id="_zrpmfep48mrBp3t19Jl-3" style="edgeStyle=orthogonalEdgeStyle;rounded=0;orthogonalLoop=1;jettySize=auto;html=1;exitX=1;exitY=0.5;exitDx=0;exitDy=0;entryX=0;entryY=0.5;entryDx=0;entryDy=0;" edge="1" parent="1" source="_zrpmfep48mrBp3t19Jl-1" target="_zrpmfep48mrBp3t19Jl-2">
          <mxGeometry relative="1" as="geometry" />
        </mxCell>
        <mxCell id="_zrpmfep48mrBp3t19Jl-1" value="data&#xa;Raw Patient Data" style="rectangle;fillColor=#fff2cc;strokeColor=#d6b656;" name="data" vertex="1" parent="1">
          <mxGeometry x="660" y="430" width="100" height="50" as="geometry" />
        </mxCell>
        <mxCell id="_zrpmfep48mrBp3t19Jl-5" style="edgeStyle=orthogonalEdgeStyle;rounded=0;orthogonalLoop=1;jettySize=auto;html=1;exitX=1;exitY=0.5;exitDx=0;exitDy=0;entryX=0;entryY=0.5;entryDx=0;entryDy=0;" edge="1" parent="1" source="_zrpmfep48mrBp3t19Jl-2" target="_zrpmfep48mrBp3t19Jl-4">
          <mxGeometry relative="1" as="geometry" />
        </mxCell>
        <mxCell id="_zrpmfep48mrBp3t19Jl-2" value="transform:embed" style="rounded=1;whiteSpace=wrap;html=1;arcSize=50;fillColor=#f8cecc;strokeColor=#b85450;" name="transform" vertex="1" parent="1">
          <mxGeometry x="840" y="430" width="100" height="50" as="geometry" />
        </mxCell>
        <mxCell id="_zrpmfep48mrBp3t19Jl-7" style="edgeStyle=orthogonalEdgeStyle;rounded=0;orthogonalLoop=1;jettySize=auto;html=1;exitX=1;exitY=0.5;exitDx=0;exitDy=0;entryX=0.5;entryY=0;entryDx=0;entryDy=0;" edge="1" parent="1" source="_zrpmfep48mrBp3t19Jl-4" target="_zrpmfep48mrBp3t19Jl-6">
          <mxGeometry relative="1" as="geometry" />
        </mxCell>
        <mxCell id="_zrpmfep48mrBp3t19Jl-4" value="data&#xa;Structured and&#xa;Preprocessed" style="rectangle;fillColor=#fff2cc;strokeColor=#d6b656;" name="data" vertex="1" parent="1">
          <mxGeometry x="1020" y="430" width="100" height="50" as="geometry" />
        </mxCell>
        <mxCell id="_zrpmfep48mrBp3t19Jl-6" value="infer:deduce" style="rounded=1;whiteSpace=wrap;html=1;arcSize=50;fillColor=#bac8d3;strokeColor=#23445d;" name="infer:deduce" vertex="1" parent="1">
          <mxGeometry x="1150" y="530" width="100" height="50" as="geometry" />
        </mxCell>
        <mxCell id="_zrpmfep48mrBp3t19Jl-8" value="data&#xa;Optimal no. of&#xa;Clusters" style="rectangle;fillColor=#fff2cc;strokeColor=#d6b656;" name="data" vertex="1" parent="1">
          <mxGeometry x="1020" y="630" width="100" height="50" as="geometry" />
        </mxCell>
        <mxCell id="_zrpmfep48mrBp3t19Jl-11" value="&lt;div&gt;error&lt;/div&gt;&lt;div&gt;&amp;nbsp;&amp;nbsp;&amp;nbsp; |&lt;/div&gt;&lt;div&gt;&amp;lt;--&lt;/div&gt;" style="text;html=1;align=center;verticalAlign=middle;whiteSpace=wrap;rounded=0;dashed=1;fillColor=#f8cecc;strokeColor=#b85450;strokeWidth=2;fillStyle=hatch;" name="text" vertex="1" parent="1">
          <mxGeometry x="1120" y="580" width="130" height="100" as="geometry" />
        </mxCell>
        <mxCell id="_zrpmfep48mrBp3t19Jl-20" style="edgeStyle=orthogonalEdgeStyle;rounded=0;orthogonalLoop=1;jettySize=auto;html=1;exitX=0;exitY=0.5;exitDx=0;exitDy=0;entryX=1;entryY=0.5;entryDx=0;entryDy=0;" edge="1" parent="1" source="_zrpmfep48mrBp3t19Jl-12" target="_zrpmfep48mrBp3t19Jl-19">
          <mxGeometry relative="1" as="geometry" />
        </mxCell>
        <mxCell id="_zrpmfep48mrBp3t19Jl-12" value="generate:engineer" style="rounded=1;whiteSpace=wrap;html=1;arcSize=50;fillColor=#e1d5e7;strokeColor=#9673a6;" name="generate:engineer" vertex="1" parent="1">
          <mxGeometry x="840" y="530" width="100" height="50" as="geometry" />
        </mxCell>
        <mxCell id="_zrpmfep48mrBp3t19Jl-14" value="&lt;div&gt;error&lt;/div&gt;&lt;div&gt;^&lt;/div&gt;&lt;div&gt;&amp;nbsp; |--&lt;/div&gt;" style="text;html=1;align=center;verticalAlign=middle;whiteSpace=wrap;rounded=0;dashed=1;fillColor=#f8cecc;strokeColor=#b85450;strokeWidth=2;textDirection=ltr;fillStyle=hatch;" name="text" vertex="1" parent="1">
          <mxGeometry x="880" y="580" width="140" height="100" as="geometry" />
        </mxCell>
        <mxCell id="_zrpmfep48mrBp3t19Jl-18" value="&lt;div&gt;error&lt;/div&gt;&lt;div&gt;&amp;nbsp;&amp;nbsp;&amp;nbsp; |&lt;/div&gt;&lt;div&gt;&amp;lt;--&lt;/div&gt;" style="text;html=1;align=center;verticalAlign=middle;whiteSpace=wrap;rounded=0;dashed=1;fillColor=#f8cecc;strokeColor=#b85450;strokeWidth=2;shadow=0;glass=0;fillStyle=hatch;" name="text" vertex="1" parent="1">
          <mxGeometry x="940" y="480" width="140" height="100" as="geometry" />
        </mxCell>
        <mxCell id="_zrpmfep48mrBp3t19Jl-22" style="edgeStyle=orthogonalEdgeStyle;rounded=0;orthogonalLoop=1;jettySize=auto;html=1;exitX=0;exitY=0.5;exitDx=0;exitDy=0;entryX=0.5;entryY=0;entryDx=0;entryDy=0;" edge="1" parent="1" source="_zrpmfep48mrBp3t19Jl-19" target="_zrpmfep48mrBp3t19Jl-21">
          <mxGeometry relative="1" as="geometry" />
        </mxCell>
        <mxCell id="_zrpmfep48mrBp3t19Jl-19" value="model:statistical&#xa;Fuzzy Partition Matrix" style="shape=hexagon;perimeter=hexagonPerimeter2;fillColor=#b0e3e6;strokeColor=#0e8088;" name="model" vertex="1" parent="1">
          <mxGeometry x="650" y="530" width="120" height="50" as="geometry" />
        </mxCell>
        <mxCell id="_zrpmfep48mrBp3t19Jl-26" style="edgeStyle=orthogonalEdgeStyle;rounded=0;orthogonalLoop=1;jettySize=auto;html=1;exitX=0.5;exitY=1;exitDx=0;exitDy=0;entryX=0.5;entryY=0;entryDx=0;entryDy=0;" edge="1" parent="1" source="_zrpmfep48mrBp3t19Jl-21" target="_zrpmfep48mrBp3t19Jl-25">
          <mxGeometry relative="1" as="geometry" />
        </mxCell>
        <mxCell id="_zrpmfep48mrBp3t19Jl-21" value="infer:deduce" style="rounded=1;whiteSpace=wrap;html=1;arcSize=50;fillColor=#bac8d3;strokeColor=#23445d;" name="infer:deduce" vertex="1" parent="1">
          <mxGeometry x="530" y="630" width="100" height="50" as="geometry" />
        </mxCell>
        <mxCell id="_zrpmfep48mrBp3t19Jl-24" style="edgeStyle=orthogonalEdgeStyle;rounded=0;orthogonalLoop=1;jettySize=auto;html=1;exitX=1;exitY=0.5;exitDx=0;exitDy=0;entryX=0;entryY=0.5;entryDx=0;entryDy=0;" edge="1" parent="1" source="_zrpmfep48mrBp3t19Jl-23" target="_zrpmfep48mrBp3t19Jl-21">
          <mxGeometry relative="1" as="geometry" />
        </mxCell>
        <mxCell id="_zrpmfep48mrBp3t19Jl-23" value="data&#xa;Patient Data" style="rectangle;fillColor=#fff2cc;strokeColor=#d6b656;" name="data" vertex="1" parent="1">
          <mxGeometry x="360" y="630" width="100" height="50" as="geometry" />
        </mxCell>
        <mxCell id="_zrpmfep48mrBp3t19Jl-25" value="symbol&#xa;Diagnosis" style="rectangle;fillColor=#dae8fc;strokeColor=#6c8ebf;" name="symbol" vertex="1" parent="1">
          <mxGeometry x="530" y="760" width="100" height="50" as="geometry" />
        </mxCell>
      </root>
    </mxGraphModel>
  </diagram>
  <diagram id="QU6d42fXNLDAIuXGBHnH" name="Page-2">
    <mxGraphModel dx="1426" dy="871" grid="1" gridSize="10" guides="1" tooltips="1" connect="1" arrows="1" fold="1" page="1" pageScale="1" pageWidth="3300" pageHeight="4681" math="0" shadow="0">
      <root>
        <mxCell id="0" />
        <mxCell id="1" parent="0" />
        <mxCell id="jtmeuOmcEV8ae_sPD3Re-1" value="2a Diagnosis Predication" style="text;html=1;align=left;verticalAlign=top;whiteSpace=wrap;rounded=0;dashed=1;fillColor=#f5f5f5;fontColor=#333333;strokeColor=#666666;strokeWidth=2;" name="text" vertex="1" parent="1">
          <mxGeometry x="410" y="500" width="290" height="290" as="geometry" />
        </mxCell>
        <mxCell id="jtmeuOmcEV8ae_sPD3Re-2" value="1d Preliminary Data Processing" style="text;html=1;align=left;verticalAlign=top;whiteSpace=wrap;rounded=0;dashed=1;fillColor=#f5f5f5;fontColor=#333333;strokeColor=#666666;strokeWidth=2;" name="text" vertex="1" parent="1">
          <mxGeometry x="710" y="500" width="360" height="200" as="geometry" />
        </mxCell>
        <mxCell id="jtmeuOmcEV8ae_sPD3Re-3" value="&lt;div align=&quot;right&quot;&gt;2a Estimating the Optimal Number of Clusters&lt;/div&gt;" style="text;html=1;align=right;verticalAlign=top;whiteSpace=wrap;rounded=0;dashed=1;fillColor=#f5f5f5;fontColor=#333333;strokeColor=#666666;strokeWidth=2;" name="text" vertex="1" parent="1">
          <mxGeometry x="1080" y="400" width="190" height="300" as="geometry" />
        </mxCell>
        <mxCell id="jtmeuOmcEV8ae_sPD3Re-4" value="1d Preliminary Data Processing" style="text;html=1;align=left;verticalAlign=top;whiteSpace=wrap;rounded=0;dashed=1;fillColor=#f5f5f5;fontColor=#333333;strokeColor=#666666;strokeWidth=2;" name="text" vertex="1" parent="1">
          <mxGeometry x="710" y="400" width="360" height="90" as="geometry" />
        </mxCell>
        <mxCell id="jtmeuOmcEV8ae_sPD3Re-5" style="edgeStyle=orthogonalEdgeStyle;rounded=0;orthogonalLoop=1;jettySize=auto;html=1;exitX=1;exitY=0.5;exitDx=0;exitDy=0;entryX=0;entryY=0.5;entryDx=0;entryDy=0;" edge="1" parent="1" source="jtmeuOmcEV8ae_sPD3Re-6" target="jtmeuOmcEV8ae_sPD3Re-8">
          <mxGeometry relative="1" as="geometry" />
        </mxCell>
        <mxCell id="jtmeuOmcEV8ae_sPD3Re-6" value="data&#xa;Raw Patient Data" style="rectangle;fillColor=#fff2cc;strokeColor=#d6b656;" name="data" vertex="1" parent="1">
          <mxGeometry x="660" y="430" width="100" height="50" as="geometry" />
        </mxCell>
        <mxCell id="jtmeuOmcEV8ae_sPD3Re-7" style="edgeStyle=orthogonalEdgeStyle;rounded=0;orthogonalLoop=1;jettySize=auto;html=1;exitX=1;exitY=0.5;exitDx=0;exitDy=0;entryX=0;entryY=0.5;entryDx=0;entryDy=0;" edge="1" parent="1" source="jtmeuOmcEV8ae_sPD3Re-8" target="jtmeuOmcEV8ae_sPD3Re-10">
          <mxGeometry relative="1" as="geometry" />
        </mxCell>
        <mxCell id="jtmeuOmcEV8ae_sPD3Re-8" value="transform:embed" style="rounded=1;whiteSpace=wrap;html=1;arcSize=50;fillColor=#f8cecc;strokeColor=#b85450;" name="transform" vertex="1" parent="1">
          <mxGeometry x="840" y="430" width="100" height="50" as="geometry" />
        </mxCell>
        <mxCell id="jtmeuOmcEV8ae_sPD3Re-26" style="edgeStyle=orthogonalEdgeStyle;rounded=0;orthogonalLoop=1;jettySize=auto;html=1;exitX=1;exitY=0.5;exitDx=0;exitDy=0;entryX=0.5;entryY=0;entryDx=0;entryDy=0;" edge="1" parent="1" source="jtmeuOmcEV8ae_sPD3Re-10" target="jtmeuOmcEV8ae_sPD3Re-25">
          <mxGeometry relative="1" as="geometry" />
        </mxCell>
        <mxCell id="jtmeuOmcEV8ae_sPD3Re-10" value="data&#xa;Structured and&#xa;Preprocessed" style="rectangle;fillColor=#fff2cc;strokeColor=#d6b656;" name="data" vertex="1" parent="1">
          <mxGeometry x="1020" y="430" width="100" height="50" as="geometry" />
        </mxCell>
        <mxCell id="jtmeuOmcEV8ae_sPD3Re-34" style="edgeStyle=orthogonalEdgeStyle;rounded=0;orthogonalLoop=1;jettySize=auto;html=1;entryX=0.5;entryY=1;entryDx=0;entryDy=0;" edge="1" parent="1" source="jtmeuOmcEV8ae_sPD3Re-12" target="jtmeuOmcEV8ae_sPD3Re-32">
          <mxGeometry relative="1" as="geometry" />
        </mxCell>
        <mxCell id="jtmeuOmcEV8ae_sPD3Re-12" value="data&#xa;Optimal no. of&#xa;Clusters + Structured &#xa;and Preprocessed" style="rectangle;fillColor=#fff2cc;strokeColor=#d6b656;" name="data" vertex="1" parent="1">
          <mxGeometry x="1020" y="630" width="100" height="50" as="geometry" />
        </mxCell>
        <mxCell id="jtmeuOmcEV8ae_sPD3Re-13" value="replaced infer:deduce with transform" style="text;html=1;align=center;verticalAlign=middle;whiteSpace=wrap;rounded=0;dashed=1;strokeWidth=2;fillStyle=auto;fillColor=#f5f5f5;strokeColor=#666666;fontColor=#333333;" name="text" vertex="1" parent="1">
          <mxGeometry x="1250" y="535" width="130" height="40" as="geometry" />
        </mxCell>
        <mxCell id="jtmeuOmcEV8ae_sPD3Re-18" style="edgeStyle=orthogonalEdgeStyle;rounded=0;orthogonalLoop=1;jettySize=auto;html=1;exitX=0;exitY=0.5;exitDx=0;exitDy=0;entryX=0.5;entryY=0;entryDx=0;entryDy=0;" edge="1" parent="1" source="jtmeuOmcEV8ae_sPD3Re-19" target="jtmeuOmcEV8ae_sPD3Re-21">
          <mxGeometry relative="1" as="geometry" />
        </mxCell>
        <mxCell id="jtmeuOmcEV8ae_sPD3Re-19" value="model:statistical&#xa;Fuzzy Partition Matrix" style="shape=hexagon;perimeter=hexagonPerimeter2;fillColor=#b0e3e6;strokeColor=#0e8088;" name="model" vertex="1" parent="1">
          <mxGeometry x="650" y="530" width="120" height="50" as="geometry" />
        </mxCell>
        <mxCell id="jtmeuOmcEV8ae_sPD3Re-20" style="edgeStyle=orthogonalEdgeStyle;rounded=0;orthogonalLoop=1;jettySize=auto;html=1;exitX=0.5;exitY=1;exitDx=0;exitDy=0;entryX=0.5;entryY=0;entryDx=0;entryDy=0;" edge="1" parent="1" source="jtmeuOmcEV8ae_sPD3Re-21" target="jtmeuOmcEV8ae_sPD3Re-24">
          <mxGeometry relative="1" as="geometry" />
        </mxCell>
        <mxCell id="jtmeuOmcEV8ae_sPD3Re-21" value="infer:deduce" style="rounded=1;whiteSpace=wrap;html=1;arcSize=50;fillColor=#bac8d3;strokeColor=#23445d;" name="infer:deduce" vertex="1" parent="1">
          <mxGeometry x="530" y="630" width="100" height="50" as="geometry" />
        </mxCell>
        <mxCell id="jtmeuOmcEV8ae_sPD3Re-22" style="edgeStyle=orthogonalEdgeStyle;rounded=0;orthogonalLoop=1;jettySize=auto;html=1;exitX=1;exitY=0.5;exitDx=0;exitDy=0;entryX=0;entryY=0.5;entryDx=0;entryDy=0;" edge="1" parent="1" source="jtmeuOmcEV8ae_sPD3Re-23" target="jtmeuOmcEV8ae_sPD3Re-21">
          <mxGeometry relative="1" as="geometry" />
        </mxCell>
        <mxCell id="jtmeuOmcEV8ae_sPD3Re-23" value="data&#xa;Patient Data" style="rectangle;fillColor=#fff2cc;strokeColor=#d6b656;" name="data" vertex="1" parent="1">
          <mxGeometry x="360" y="630" width="100" height="50" as="geometry" />
        </mxCell>
        <mxCell id="jtmeuOmcEV8ae_sPD3Re-24" value="symbol&#xa;Diagnosis" style="rectangle;fillColor=#dae8fc;strokeColor=#6c8ebf;" name="symbol" vertex="1" parent="1">
          <mxGeometry x="530" y="760" width="100" height="50" as="geometry" />
        </mxCell>
        <mxCell id="jtmeuOmcEV8ae_sPD3Re-27" style="edgeStyle=orthogonalEdgeStyle;rounded=0;orthogonalLoop=1;jettySize=auto;html=1;exitX=0.5;exitY=1;exitDx=0;exitDy=0;entryX=1;entryY=0.5;entryDx=0;entryDy=0;" edge="1" parent="1" source="jtmeuOmcEV8ae_sPD3Re-25" target="jtmeuOmcEV8ae_sPD3Re-12">
          <mxGeometry relative="1" as="geometry" />
        </mxCell>
        <mxCell id="jtmeuOmcEV8ae_sPD3Re-25" value="transform" style="rounded=1;whiteSpace=wrap;html=1;arcSize=50;fillColor=#f8cecc;strokeColor=#b85450;" name="transform" vertex="1" parent="1">
          <mxGeometry x="1135" y="530" width="100" height="50" as="geometry" />
        </mxCell>
        <mxCell id="jtmeuOmcEV8ae_sPD3Re-33" style="edgeStyle=orthogonalEdgeStyle;rounded=0;orthogonalLoop=1;jettySize=auto;html=1;entryX=1;entryY=0.5;entryDx=0;entryDy=0;" edge="1" parent="1" source="jtmeuOmcEV8ae_sPD3Re-32" target="jtmeuOmcEV8ae_sPD3Re-19">
          <mxGeometry relative="1" as="geometry" />
        </mxCell>
        <mxCell id="jtmeuOmcEV8ae_sPD3Re-32" value="generate:train" style="rounded=1;whiteSpace=wrap;html=1;arcSize=50;fillColor=#e1d5e7;strokeColor=#9673a6;" name="generate:train" vertex="1" parent="1">
          <mxGeometry x="840" y="530" width="100" height="50" as="geometry" />
        </mxCell>
        <mxCell id="jtmeuOmcEV8ae_sPD3Re-35" value="merged two data inputs" style="text;html=1;align=center;verticalAlign=middle;whiteSpace=wrap;rounded=0;dashed=1;strokeWidth=2;fillStyle=auto;fillColor=#f5f5f5;strokeColor=#666666;fontColor=#333333;" name="text" vertex="1" parent="1">
          <mxGeometry x="1005" y="585" width="130" height="30" as="geometry" />
        </mxCell>
        <mxCell id="iR6jubxWPdTPQqzXLjE3-1" value="replaced generate:engineer with generate:train" style="text;html=1;align=center;verticalAlign=middle;whiteSpace=wrap;rounded=0;dashed=1;strokeWidth=2;fillStyle=auto;fillColor=#f5f5f5;strokeColor=#666666;fontColor=#333333;" name="text" vertex="1" parent="1">
          <mxGeometry x="730" y="590" width="150" height="40" as="geometry" />
        </mxCell>
      </root>
    </mxGraphModel>
  </diagram>
</mxfile>
